<svg width="24" height="13" viewBox="0 0 24 13" fill="none" xmlns="http://www.w3.org/2000/svg">
<path d="M9.84375 11.6094C8.82812 11.9219 7.78646 12.0781 6.71875 12.0781C2.8125 12.0781 0.859375 10.138 0.859375 6.25781C0.859375 2.58594 2.8125 0.75 6.71875 0.75C7.78646 0.75 8.82812 0.90625 9.84375 1.21875V1.92188C8.82812 1.60938 7.83854 1.45312 6.875 1.45312C3.41146 1.45312 1.67969 3.05469 1.67969 6.25781C1.67969 9.66927 3.41146 11.375 6.875 11.375C7.83854 11.375 8.82812 11.2188 9.84375 10.9062V11.6094ZM12.2344 12V0.828125H13.0547L18.0938 11.0391L22.8203 0.828125H23.5625V12H22.8203V2.33594L18.3828 12H17.7109L12.9766 2.25781V12H12.2344Z" fill="black"/>
</svg>
