<svg width="336" height="214" viewBox="0 0 336 214" fill="none" xmlns="http://www.w3.org/2000/svg">
<path d="M233.945 87.979C231.278 87.979 228.812 89.395 227.468 91.698L179.984 173.031C178.63 175.35 178.619 178.217 179.957 180.547C181.294 182.876 183.775 184.313 186.461 184.313H281.429C284.115 184.313 286.596 182.876 287.933 180.547C289.271 178.217 289.26 175.351 287.906 173.031L240.423 91.698C239.078 89.395 236.612 87.979 233.945 87.979ZM199.524 169.312L233.945 110.354L268.365 169.312H199.524Z" fill="black"/>
<path d="M152.667 197.69H328.287C332.43 197.69 335.789 201.048 335.789 205.19C335.789 209.332 332.432 212.69 328.289 212.69H139.605H139.5C136.814 212.69 134.333 211.253 132.996 208.924C131.658 206.594 131.669 203.727 133.023 201.408L227.365 39.815C228.709 37.512 231.175 36.096 233.842 36.096C237.428 36.4603 238.958 37.182 240.422 39.815L309.824 158.693C311.913 162.27 310.706 166.863 307.129 168.951C303.554 171.039 298.959 169.833 296.871 166.255L233.945 58.472L152.667 197.69Z" fill="black"/>
<path d="M141.183 74.05C135.871 70.564 129.314 67.659 121.512 65.335C113.71 63.011 104.829 61.849 94.869 61.849C83.747 61.849 74.368 63.509 66.732 66.829C59.096 69.983 52.871 74.465 48.057 80.275C43.409 86.085 40.006 93.14 37.848 101.44C35.856 109.574 34.86 118.621 34.86 128.581C34.86 151.323 39.84 168.504 49.8 180.124C59.76 191.744 74.617 197.554 94.371 197.554C104.829 197.554 114.457 196.06 123.255 193.072C132.053 190.084 139.108 186.432 144.42 182.116L149.4 198.799C142.76 202.783 134.709 206.352 125.247 209.506C115.951 212.494 105.41 213.988 93.624 213.988C80.012 213.988 68.226 211.747 58.266 207.265C48.306 202.783 40.006 196.724 33.366 189.088C26.892 181.452 22.078 172.654 18.924 162.694C15.77 152.568 14.193 141.861 14.193 130.573C14.193 118.787 15.936 107.748 19.422 97.456C22.908 87.164 28.054 78.2 34.86 70.564C41.832 62.762 50.381 56.62 60.507 52.138C70.799 47.656 82.751 45.415 96.363 45.415C105.327 45.415 114.291 46.411 123.255 48.403C132.219 50.229 139.938 52.802 146.412 56.122L141.183 74.05Z" fill="black"/>
</svg>
