<?xml version="1.0" encoding="iso-8859-1"?>
<!-- Generator: Adobe Illustrator 19.0.0, SVG Export Plug-In . SVG Version: 6.00 Build 0)  -->
<svg version="1.1" id="Layer_1" xmlns="http://www.w3.org/2000/svg" xmlns:xlink="http://www.w3.org/1999/xlink" x="0px" y="0px"
	 viewBox="0 0 512 512" style="enable-background:new 0 0 512 512;" xml:space="preserve">
<g>
	<g>
		<path d="M506.136,5.88c-3.772-3.776-8.796-5.856-14.14-5.856c-5.34,0-10.364,2.08-14.132,5.856L5.868,477.872
			c-3.776,3.776-5.856,8.8-5.856,14.14c0,5.34,2.08,10.36,5.852,14.132C9.636,509.92,14.66,512,20.004,512
			c5.34,0,10.356-2.08,14.132-5.856L506.132,34.152c3.776-3.772,5.856-8.792,5.856-14.132C511.988,14.68,509.908,9.656,506.136,5.88
			z M500.476,28.492L28.48,500.488c-4.536,4.536-12.436,4.528-16.956,0c-2.264-2.264-3.512-5.272-3.512-8.476
			c0-3.204,1.248-6.22,3.512-8.484l472-471.992c2.256-2.264,5.268-3.512,8.472-3.512c3.208,0,6.22,1.244,8.48,3.512
			c2.264,2.264,3.512,5.28,3.512,8.484C503.988,23.22,502.74,26.232,500.476,28.492z"/>
	</g>
</g>
<g>
	<g>
		<g>
			<path d="M402.048,292.068c-60.624,0-109.944,49.32-109.944,109.944c0,60.62,49.32,109.94,109.944,109.94
				c60.62,0,109.94-49.32,109.94-109.94C511.988,341.388,462.668,292.068,402.048,292.068z M402.048,503.952
				c-56.208,0-101.944-45.732-101.944-101.94s45.732-101.944,101.944-101.944c56.208,0,101.94,45.736,101.94,101.944
				S458.256,503.952,402.048,503.952z"/>
			<path d="M469.84,363.548c-1.096-1.916-3.54-2.588-5.456-1.496c-1.916,1.092-2.588,3.536-1.496,5.456
				c5.964,10.472,9.116,22.408,9.116,34.504c0,38.576-31.38,69.96-69.956,69.96s-69.96-31.384-69.96-69.96s31.38-69.96,69.96-69.96
				c12.092,0,24.028,3.156,34.52,9.124c1.904,1.084,4.356,0.42,5.452-1.5c1.092-1.916,0.42-4.36-1.5-5.452
				c-11.692-6.656-24.996-10.172-38.472-10.172c-42.988,0-77.96,34.972-77.96,77.96c0,42.988,34.972,77.96,77.96,77.96
				c42.984,0,77.956-34.972,77.956-77.96C480.004,388.528,476.488,375.228,469.84,363.548z"/>
		</g>
	</g>
</g>
<g>
	<g>
		<g>
			<path d="M109.968,0C49.348,0,0.028,49.32,0.028,109.944c0,60.624,49.32,109.944,109.94,109.944
				c60.624,0,109.948-49.32,109.944-109.948C219.912,49.32,170.592,0,109.968,0z M109.968,211.884
				c-56.208,0-101.94-45.736-101.94-101.944S53.756,8,109.968,8s101.944,45.732,101.944,101.94S166.176,211.884,109.968,211.884z"/>
			<path d="M177.768,71.488c-1.096-1.924-3.548-2.592-5.452-1.5c-1.92,1.092-2.592,3.536-1.5,5.452
				c5.96,10.48,9.112,22.412,9.112,34.504c0,38.576-31.38,69.96-69.96,69.96c-38.572,0-69.956-31.384-69.956-69.96
				c0-38.576,31.38-69.96,69.956-69.96c12.1,0,24.032,3.156,34.516,9.128c1.912,1.088,4.364,0.42,5.456-1.496
				c1.092-1.92,0.42-4.364-1.496-5.456c-11.688-6.656-24.992-10.176-38.476-10.176c-42.984,0-77.956,34.972-77.956,77.96
				c0,42.988,34.972,77.96,77.956,77.96c42.988,0,77.96-34.976,77.96-77.96C187.928,96.464,184.416,83.168,177.768,71.488z"/>
		</g>
	</g>
</g>
<g>
</g>
<g>
</g>
<g>
</g>
<g>
</g>
<g>
</g>
<g>
</g>
<g>
</g>
<g>
</g>
<g>
</g>
<g>
</g>
<g>
</g>
<g>
</g>
<g>
</g>
<g>
</g>
<g>
</g>
</svg>
