<?xml version="1.0" encoding="iso-8859-1"?>
<!-- Generator: Adobe Illustrator 19.0.0, SVG Export Plug-In . SVG Version: 6.00 Build 0)  -->
<svg version="1.1" id="Capa_1" xmlns="http://www.w3.org/2000/svg" xmlns:xlink="http://www.w3.org/1999/xlink" x="0px" y="0px"
	 viewBox="0 0 511.999 511.999" style="enable-background:new 0 0 511.999 511.999;" xml:space="preserve">
<path style="fill:#5F6E9B;" d="M176.183,109.66l-48.504-11.175c-15.022-3.461-30.005,5.91-33.465,20.932l-30.424,132.05
	c-1.143,4.96-1.405,10.082-0.775,15.134l13.839,110.89L66.288,478.362c-1.255,11.977,7.438,22.704,19.415,23.958
	c11.966,1.254,22.702-7.43,23.958-19.415l10.843-103.514c0.184-1.756,0.154-3.529-0.09-5.277L107.16,269.356l57.803,13.318
	l32.152-139.549C200.576,128.104,191.205,113.121,176.183,109.66z"/>
<path style="fill:#FFB69E;" d="M7.471,233.619c-8.263-6.214-9.925-17.949-3.713-26.212l46.015-61.202
	c2.397-3.188,5.748-5.526,9.568-6.676l77.9-23.445c9.9-2.98,20.34,2.631,23.32,12.53c2.98,9.9-2.631,20.341-12.53,23.32
	L76.01,173.61l-42.326,56.296C27.491,238.142,15.763,239.851,7.471,233.619z"/>
<path style="fill:#414B82;" d="M160.796,456.952c-11.795-2.427-19.391-13.956-16.965-25.751l19.813-96.312l-66.39-77.983
	c-7.807-9.17-6.702-22.932,2.468-30.738c9.171-7.807,22.932-6.701,30.738,2.468l73.289,86.088c4.354,5.114,6.109,11.95,4.755,18.528
	l-21.956,106.736C184.129,451.746,172.629,459.385,160.796,456.952z"/>
<path style="fill:#64AFFF;" d="M176.183,109.66c-16.164-3.725-32.339-7.452-48.504-11.175c-15.022-3.461-30.005,5.911-33.465,20.932
	c-5.147,22.34-22.176,96.251-30.425,132.051c-0.58,2.52-0.931,5.081-1.056,7.653c9.935,2.289,92.11,21.223,102.23,23.554
	c33.001-143.292,32.257-139.907,32.472-141.17C199.889,127.04,190.664,112.996,176.183,109.66z"/>
<circle style="fill:#FFB69E;" cx="171.534" cy="50.88" r="41.321"/>
<path style="fill:#A5C8CD;" d="M422.492,322.268c-3.017,0-5.463,2.446-5.463,5.463v39.58h-89.507c-3.017,0-5.463,2.446-5.463,5.463
	v39.58h-89.507c-3.017,0-5.463,2.446-5.463,5.463v39.58h-89.507c-3.017,0-5.463,2.446-5.463,5.463v34.117
	c0,3.017,2.446,5.463,5.463,5.463h368.954c3.017,0,5.463-2.446,5.463-5.463V327.731c0-3.017-2.446-5.463-5.463-5.463
	L422.492,322.268L422.492,322.268z"/>
<path style="fill:#55879B;" d="M26.41,502.441c-9.101,0-16.48-7.378-16.48-16.48v-118.65c0-6.037,3.302-11.592,8.605-14.476
	L487.645,97.654c5.105-2.776,11.299-2.661,16.295,0.31c4.998,2.97,8.06,8.353,8.06,14.165v237.603c0,9.101-7.378,16.48-16.48,16.48
	c-9.101,0-16.48-7.378-16.48-16.48V139.854L42.89,377.106v108.856C42.89,495.062,35.512,502.441,26.41,502.441z"/>
<path style="fill:#FFB69E;" d="M256.77,242.964l-74.311-8.455c-6.23-0.709-11.689-4.488-14.547-10.068l-41.55-81.148
	c-4.712-9.203-1.071-20.482,8.131-25.194c9.2-4.717,20.482-1.071,25.194,8.131l36.976,72.215l64.338,7.321
	c10.273,1.169,17.653,10.444,16.484,20.715C276.318,236.74,267.05,244.135,256.77,242.964z"/>
<path style="fill:#78BEFF;" d="M179.969,165.838l-20.281-39.609c-4.712-9.203-15.994-12.849-25.194-8.131
	c-9.203,4.712-12.844,15.992-8.131,25.194l19.781,38.633L179.969,165.838z"/>
<g>
</g>
<g>
</g>
<g>
</g>
<g>
</g>
<g>
</g>
<g>
</g>
<g>
</g>
<g>
</g>
<g>
</g>
<g>
</g>
<g>
</g>
<g>
</g>
<g>
</g>
<g>
</g>
<g>
</g>
</svg>
